<?xml version="1.0" encoding="UTF-8" standalone="no"?>

<svg
   version="1.1"
   x="0px"
   y="0px"
   viewBox="0 0 1000 1000"
   enable-background="new 0 0 1000 1000"
   xml:space="preserve"
   id="svg55"
   sodipodi:docname="00a653fdb015c16601ec01d1672e58c6.svg"
   inkscape:version="1.1.2 (b8e25be8, 2022-02-05)"
   xmlns:inkscape="http://www.inkscape.org/namespaces/inkscape"
   xmlns:sodipodi="http://sodipodi.sourceforge.net/DTD/sodipodi-0.dtd"
   xmlns="http://www.w3.org/2000/svg"
   xmlns:svg="http://www.w3.org/2000/svg"><defs
   id="defs59" /><sodipodi:namedview
   id="namedview57"
   pagecolor="#ffffff"
   bordercolor="#666666"
   borderopacity="1.0"
   inkscape:pageshadow="2"
   inkscape:pageopacity="0.0"
   inkscape:pagecheckerboard="0"
   showgrid="false"
   inkscape:zoom="0.56"
   inkscape:cx="499.10714"
   inkscape:cy="500"
   inkscape:window-width="1440"
   inkscape:window-height="786"
   inkscape:window-x="0"
   inkscape:window-y="25"
   inkscape:window-maximized="0"
   inkscape:current-layer="svg55" />
<metadata
   id="metadata43"> Svg Vector Icons : http://www.onlinewebfonts.com/icon </metadata>
<g
   id="g53"><g
     transform="translate(0.000000,511.000000) scale(0.100000,-0.100000)"
     id="g51"><path
       d="m 4998.3054,1487.1047 c -125.4008,-58.2 -2158.4023,-2084.6014 -2212.204,-2205.5018 -62.6988,-134.3004 -58.1991,-295.5004 11.2015,-432.1005 73.8993,-147.8 2033.1024,-2106.9991 2180.9018,-2180.8997 141.1012,-69.3995 360.5019,-58.2 492.6008,29.0999 138.7996,91.8003 210.5006,217.2003 221.7009,385.1008 15.6994,255.2988 33.5993,232.8995 -882.2007,1153.099 l -837.5031,839.7001 817.3029,817.3014 c 526.1997,526.20035 835.2014,850.8005 861.9994,909.0999 116.402,237.3004 15.7014,539.6009 -221.6988,662.8003 -141.0005,73.8006 -304.5002,82.8004 -432.1007,22.3006 z"
       id="path47"
       style="stroke-width:0.999972" /><path
       d="m 4805.301,3353.6071 c -215,-112 -322.4,-342.6 -264.2,-579.9 24.6,-103 76.1,-159 862,-949.3999 461.3,-463.5001 837.4,-850.8001 837.4,-862.1001 0,-13.4 -362.7,-385.1 -808.3,-828.49999 -450.1,-450.00001 -828.4,-846.40001 -855.3,-895.60001 -98.5,-183.6 -49.3,-445.6 112,-597.8 132.1,-125.4 365,-167.9 539.6,-96.3 56,24.6 412,365 1141.9,1092.7 947.1,947.1 1061.3,1068 1092.7,1166.6 40.3,120.9 31.4,262 -24.6,380.6 -17.9,38.1 -510.5,546.3 -1092.7,1126.3 -897.9,897.9 -1070.3,1059.1 -1146.4,1079.2 -147.8,40.4 -262,29.2 -394.1,-35.8 z"
       id="path49" /></g></g>
</svg>
